<?xml version="1.0" standalone="no"?>
<!DOCTYPE svg PUBLIC "-//W3C//DTD SVG 20010904//EN"
 "http://www.w3.org/TR/2001/REC-SVG-20010904/DTD/svg10.dtd">
<svg version="1.0" xmlns="http://www.w3.org/2000/svg"
 width="297.000000pt" height="48.000000pt" viewBox="0 0 297.000000 48.000000"
 preserveAspectRatio="xMidYMid meet">

<g transform="translate(0.000000,48.000000) scale(0.100000,-0.100000)"
fill="#000000" stroke="none">
<path d="M1489 467 c-206 -57 -236 -336 -47 -433 67 -35 154 -37 214 -6 58 29
66 42 45 69 l-18 22 -48 -25 c-27 -13 -60 -24 -74 -24 -114 0 -199 104 -172
207 31 116 156 165 258 102 l32 -20 16 25 c21 31 13 43 -39 66 -58 26 -114 31
-167 17z"/>
<path d="M5 458 c-3 -8 -4 -110 -3 -228 l3 -215 35 0 35 0 3 58 3 57 95 0 95
0 -3 38 -3 37 -92 3 -93 3 0 89 0 89 123 3 122 3 0 35 0 35 -158 3 c-122 2
-159 0 -162 -10z"/>
<path d="M422 243 l3 -228 35 0 35 0 3 78 3 77 39 0 c38 0 40 -2 76 -65 47
-85 59 -97 92 -89 15 4 28 8 30 9 2 2 -15 35 -37 74 l-40 72 39 35 c86 78 69
198 -34 245 -31 14 -65 19 -144 19 l-102 0 2 -227z m243 132 c33 -32 33 -78 0
-110 -21 -22 -33 -25 -95 -25 l-70 0 0 80 0 80 70 0 c62 0 74 -3 95 -25z"/>
<path d="M1784 456 c-3 -8 -4 -25 -2 -38 3 -21 9 -23 70 -26 l68 -3 2 -187 3
-187 35 0 35 0 3 187 2 187 68 3 67 3 0 35 0 35 -173 3 c-143 2 -173 0 -178
-12z"/>
<path d="M2635 458 c-3 -7 -4 -110 -3 -228 l3 -215 165 0 165 0 0 35 0 35
-127 3 -128 3 -2 187 -3 187 -33 3 c-20 2 -34 -2 -37 -10z"/>
</g>
</svg>
